<svg xmlns="http://www.w3.org/2000/svg" xmlns:xlink="http://www.w3.org/1999/xlink" width="500" zoomAndPan="magnify" viewBox="0 0 375 374.999991" height="500" preserveAspectRatio="xMidYMid meet" version="1.0"><defs><clipPath id="34c365d01a"><path d="M 68.167969 52.835938 L 114.242188 52.835938 L 114.242188 96.679688 L 68.167969 96.679688 Z M 68.167969 52.835938 " clip-rule="nonzero"/></clipPath><clipPath id="5eeaacf16a"><path d="M 91.167969 52.835938 L 96.597656 69.582031 L 114.171875 69.582031 L 99.953125 79.933594 L 105.382812 96.679688 L 91.167969 86.328125 L 76.953125 96.679688 L 82.382812 79.933594 L 68.167969 69.582031 L 85.738281 69.582031 Z M 91.167969 52.835938 " clip-rule="nonzero"/></clipPath><clipPath id="40559399d0"><path d="M 68.167969 96.679688 L 114.242188 96.679688 L 114.242188 140.523438 L 68.167969 140.523438 Z M 68.167969 96.679688 " clip-rule="nonzero"/></clipPath><clipPath id="5bcd1ee3b2"><path d="M 91.167969 96.679688 L 96.597656 113.425781 L 114.171875 113.425781 L 99.953125 123.777344 L 105.382812 140.523438 L 91.167969 130.175781 L 76.953125 140.523438 L 82.382812 123.777344 L 68.167969 113.425781 L 85.738281 113.425781 Z M 91.167969 96.679688 " clip-rule="nonzero"/></clipPath><clipPath id="fa150bb2c4"><path d="M 68.167969 140.523438 L 114.242188 140.523438 L 114.242188 184.371094 L 68.167969 184.371094 Z M 68.167969 140.523438 " clip-rule="nonzero"/></clipPath><clipPath id="e939c63502"><path d="M 91.167969 140.523438 L 96.597656 157.273438 L 114.171875 157.273438 L 99.953125 167.621094 L 105.382812 184.371094 L 91.167969 174.019531 L 76.953125 184.371094 L 82.382812 167.621094 L 68.167969 157.273438 L 85.738281 157.273438 Z M 91.167969 140.523438 " clip-rule="nonzero"/></clipPath><clipPath id="6159ad3f5c"><path d="M 68.167969 184.371094 L 114.242188 184.371094 L 114.242188 228.214844 L 68.167969 228.214844 Z M 68.167969 184.371094 " clip-rule="nonzero"/></clipPath><clipPath id="411a07715f"><path d="M 91.167969 184.371094 L 96.597656 201.117188 L 114.171875 201.117188 L 99.953125 211.46875 L 105.382812 228.214844 L 91.167969 217.863281 L 76.953125 228.214844 L 82.382812 211.46875 L 68.167969 201.117188 L 85.738281 201.117188 Z M 91.167969 184.371094 " clip-rule="nonzero"/></clipPath></defs><g clip-path="url(#34c365d01a)"><g clip-path="url(#5eeaacf16a)"><path fill="#c06145" d="M 68.167969 52.835938 L 114.242188 52.835938 L 114.242188 96.679688 L 68.167969 96.679688 Z M 68.167969 52.835938 " fill-opacity="1" fill-rule="nonzero"/></g></g><g clip-path="url(#40559399d0)"><g clip-path="url(#5bcd1ee3b2)"><path fill="#c06145" d="M 68.167969 96.679688 L 114.242188 96.679688 L 114.242188 140.523438 L 68.167969 140.523438 Z M 68.167969 96.679688 " fill-opacity="1" fill-rule="nonzero"/></g></g><g clip-path="url(#fa150bb2c4)"><g clip-path="url(#e939c63502)"><path fill="#c06145" d="M 68.167969 140.523438 L 114.242188 140.523438 L 114.242188 184.371094 L 68.167969 184.371094 Z M 68.167969 140.523438 " fill-opacity="1" fill-rule="nonzero"/></g></g><g clip-path="url(#6159ad3f5c)"><g clip-path="url(#411a07715f)"><path fill="#c06145" d="M 68.167969 184.371094 L 114.242188 184.371094 L 114.242188 228.214844 L 68.167969 228.214844 Z M 68.167969 184.371094 " fill-opacity="1" fill-rule="nonzero"/></g></g></svg>